<?xml version="1.0" standalone="no"?>
<!DOCTYPE svg PUBLIC "-//W3C//DTD SVG 1.1//EN" "http://www.w3.org/Graphics/SVG/1.1/DTD/svg11.dtd" >
<svg xmlns="http://www.w3.org/2000/svg">
<metadata>Generated by IcoMoon</metadata>
<defs>
<font id="icons" horiz-adv-x="1024">
<font-face units-per-em="1024" ascent="960" descent="-64" />
<missing-glyph horiz-adv-x="1024" />
<glyph unicode="&#x20;" horiz-adv-x="512" d="" />
<glyph unicode="&#xe900;" glyph-name="arrow-md" d="M727.648 725.93l283.324-269.345c17.363-16.517 17.363-43.318 0-59.835l-283.324-269.345c-8.223-7.678-19.299-12.393-31.476-12.393s-23.253 4.714-31.502 12.417l0.027-0.025c-8.038 7.484-13.050 18.127-13.050 29.94s5.012 22.456 13.025 29.917l0.025 0.023 207.329 197.045h-829.673c-23.383 0-42.339 18.956-42.339 42.339s18.956 42.339 42.339 42.339h829.628l-207.329 197.045c-8.038 7.484-13.050 18.127-13.050 29.94s5.012 22.456 13.025 29.917l0.025 0.023c8.223 7.678 19.299 12.393 31.476 12.393s23.253-4.714 31.502-12.417l-0.027 0.025z" />
<glyph unicode="&#xe901;" glyph-name="arrow-left" d="M206.566 641.788l-197.468-193.596c-5.609-5.454-9.088-13.073-9.088-21.504s3.48-16.049 9.081-21.497l0.007-0.007 197.468-193.596c5.665-5.513 13.411-8.913 21.952-8.913s16.286 3.4 21.959 8.92l-0.007-0.007c5.618 5.456 9.105 13.081 9.105 21.52s-3.486 16.064-9.098 21.512l-0.007 0.007-144.509 141.629h887.597c16.807 0 30.431 13.625 30.431 30.431s-13.625 30.431-30.431 30.431h-887.597l144.477 141.629c5.618 5.456 9.105 13.081 9.105 21.52s-3.486 16.064-9.098 21.512l-0.007 0.007c-5.662 5.495-13.395 8.882-21.92 8.882s-16.258-3.387-21.927-8.89l0.008 0.007z" />
<glyph unicode="&#xe902;" glyph-name="check" d="M1001.475 765.003c29.185-27.649 30.107-73.322 2.048-101.995l-555.030-569.673c-15.199-15.511-36.364-25.126-59.775-25.126-23.96 0-45.568 10.072-60.82 26.213l-308.478 329.166c-12.027 12.747-19.42 29.98-19.42 48.94 0 20.976 9.049 39.84 23.456 52.899l0.060 0.054c13.058 11.887 30.492 19.166 49.627 19.166 21.141 0 40.206-8.885 53.665-23.125l262.904-280.417 508.333 521.851c13.414 13.692 32.094 22.18 52.757 22.18 19.635 0 37.48-7.665 50.706-20.165l-0.035 0.033z" />
<glyph unicode="&#xe903;" glyph-name="chevron-down" d="M21.446 696.561c-13.28-14.263-21.431-33.455-21.431-54.551s8.151-40.289 21.475-54.6l-0.045 0.049 387.125-408.186c25.826-27.804 62.588-45.145 103.399-45.145s77.573 17.341 103.318 45.056l0.081 0.088 387.125 408.039c13.321 14.272 21.499 33.493 21.499 54.625s-8.178 40.353-21.542 54.671l0.043-0.047c-12.918 13.949-31.329 22.651-51.773 22.651s-38.855-8.702-51.73-22.605l-0.042-0.046-386.979-408.186-386.979 408.039c-12.918 13.949-31.329 22.651-51.773 22.651s-38.855-8.702-51.73-22.605l-0.042-0.046z" />
<glyph unicode="&#xe904;" glyph-name="clock" d="M512 938.652c282.761 0 511.985-229.224 511.985-511.985s-229.224-511.985-511.985-511.985v0c-282.761 0-511.985 229.224-511.985 511.985s229.224 511.985 511.985 511.985v0zM512 850.883c-234.288 0-424.215-189.928-424.215-424.215s189.928-424.215 424.215-424.215v0c234.288 0 424.215 189.928 424.215 424.215s-189.928 424.215-424.215 424.215v0zM512 754.747c24.237 0 43.885-19.648 43.885-43.885v0-266.057l187.884-187.825c8.604-8.034 13.968-19.444 13.968-32.106 0-24.237-19.648-43.885-43.885-43.885-12.662 0-24.073 5.363-32.082 13.942l-0.024 0.026-213.629 213.513v302.393c0 24.237 19.648 43.885 43.885 43.885v0z" />
<glyph unicode="&#xe905;" glyph-name="close" d="M511.888 495.115l429.256 429.256c8.775 8.813 20.918 14.267 34.335 14.267 26.757 0 48.449-21.692 48.449-48.449 0-10.341-3.24-19.926-8.761-27.794l0.103 0.156-5.62-6.782-429.256-429.158 429.256-429.256c8.756-8.765 14.17-20.87 14.17-34.239 0-10.275-3.199-19.803-8.655-27.643l0.104 0.159-5.62-6.782c-8.764-8.746-20.861-14.153-34.221-14.153-10.324 0-19.894 3.229-27.755 8.733l0.156-0.103-6.686 5.62-429.256 429.256-429.062-429.256c-8.77-8.78-20.89-14.21-34.278-14.21-10.3 0-19.849 3.215-27.7 8.695l0.158-0.104-6.782 5.62c-8.746 8.764-14.153 20.861-14.153 34.221 0 10.324 3.229 19.894 8.733 27.755l-0.103-0.156 5.62 6.782 429.158 429.062-429.256 429.158c-8.712 8.758-14.096 20.832-14.096 34.163 0 10.349 3.245 19.94 8.773 27.811l-0.103-0.154 5.523 6.686c8.77 8.78 20.89 14.21 34.278 14.21 10.3 0 19.849-3.215 27.7-8.695l-0.158 0.104 6.686-5.62 429.062-429.158z" />
<glyph unicode="&#xe906;" glyph-name="filter" d="M853.32 377.907c94.234-0.025 170.616-76.422 170.616-170.659 0-94.253-76.407-170.659-170.659-170.659-76.867 0-141.863 50.818-163.227 120.69l-0.318 1.209h-654.356c-19.601 0.354-35.355 16.327-35.355 35.979 0 0.208 0.002 0.415 0.005 0.622l-0.001-0.031c0 20.187 15.847 36.57 35.4 36.57h648.992c12.343 83.18 83.255 146.277 168.903 146.279h0.001zM853.32 309.644c-56.551 0-102.395-45.844-102.395-102.395s45.844-102.395 102.395-102.395v0c56.551 0 102.395 45.844 102.395 102.395s-45.844 102.395-102.395 102.395v0zM170.684 816.745c0.013 0 0.028 0 0.043 0 85.651 0 156.565-63.097 168.795-145.346l0.114-0.933h648.992c19.504 0 35.351-16.383 35.351-36.57s-15.847-36.57-35.4-36.57h-654.356c-21.902-70.788-86.772-121.321-163.444-121.321-94.069 0-170.371 76.065-170.755 170.044v0.037c0 94.253 76.407 170.659 170.659 170.659v0zM170.684 748.481c-56.551 0-102.395-45.844-102.395-102.395s45.844-102.395 102.395-102.395v0c56.551 0 102.395 45.844 102.395 102.395s-45.844 102.395-102.395 102.395v0z" />
<glyph unicode="&#xe907;" glyph-name="info" d="M512 938.667c282.77 0 512-229.23 512-512s-229.23-512-512-512v0c-282.77 0-512 229.23-512 512s229.23 512 512 512v0zM512 586.155c-40.389 0-73.131-32.742-73.131-73.131 0-0.030 0-0.060 0-0.090v0.005-378.88c-0.054-1.055-0.085-2.291-0.085-3.534 0-40.436 32.78-73.216 73.216-73.216s73.216 32.78 73.216 73.216c0 1.243-0.031 2.479-0.092 3.707l0.007-0.173v378.88c0 40.406-32.731 73.167-73.126 73.216h-0.005zM539.819 786.859c-8.223 3.477-17.785 5.498-27.819 5.498s-19.595-2.021-28.3-5.677l0.482 0.179c-9.373-3.688-17.398-8.89-24.175-15.385l0.026 0.025c-6.252-6.862-11.421-14.851-15.152-23.6l-0.208-0.55c-3.619-8.378-5.724-18.132-5.724-28.379 0-20.038 8.050-38.196 21.092-51.416l-0.008 0.008c6.862-6.253 14.85-11.423 23.6-15.152l0.549-0.208c8.382-3.633 18.144-5.747 28.399-5.747 40.342 0 73.045 32.704 73.045 73.045 0 20.344-8.317 38.745-21.736 51.99l-0.008 0.008c-6.729 6.462-14.725 11.663-23.57 15.186l-0.494 0.174z" />
<glyph unicode="&#xe908;" glyph-name="minus" d="M1024 426.667c0-47.104-25.486-85.333-56.889-85.333h-910.222c-31.403 0-56.889 38.229-56.889 85.333s25.486 85.333 56.889 85.333h910.222c31.403 0 56.889-38.229 56.889-85.333z" />
<glyph unicode="&#xe909;" glyph-name="next" d="M305.013 925.477c8.883 8.168 20.786 13.174 33.858 13.174 16.534 0 31.198-8.011 40.321-20.363l0.097-0.137 342.232-443.366c10.237-13.16 16.412-29.922 16.412-48.125s-6.176-34.965-16.545-48.303l0.133 0.178-342.232-443.445c-9.223-12.436-23.857-20.409-40.352-20.409-13.065 0-24.963 5.002-33.881 13.195l0.036-0.033c-11.723 10.982-19.028 26.558-19.028 43.84 0 13.725 4.607 26.374 12.359 36.485l-0.105-0.143 323.171 418.634-323.171 418.634c-7.647 9.967-12.253 22.617-12.253 36.342 0 17.282 7.305 32.858 18.995 43.809l0.033 0.031z" />
<glyph unicode="&#xe90a;" glyph-name="plus" d="M512.007 938.645c44.624 0 80.84-32.767 80.84-73.133v-358.013h358.013c40.42 0 73.133-36.216 73.133-80.84s-32.767-80.84-73.133-80.84h-358.013v-358.013c0-40.42-36.216-73.133-80.84-73.133s-80.84 32.767-80.84 73.133v358.013h-358.013c-40.42 0-73.133 36.216-73.133 80.84s32.767 80.84 73.133 80.84h358.013v358.013c0 40.42 36.216 73.133 80.84 73.133z" />
<glyph unicode="&#xe90b;" glyph-name="prev" d="M718.995-72.143c-8.883-8.168-20.786-13.174-33.858-13.174-16.534 0-31.198 8.011-40.321 20.363l-0.097 0.137-342.232 443.366c-10.237 13.16-16.412 29.922-16.412 48.125s6.176 34.965 16.545 48.303l-0.133-0.178 342.232 443.445c9.223 12.436 23.857 20.409 40.352 20.409 13.065 0 24.963-5.002 33.881-13.195l-0.036 0.033c22.369-20.164 25.363-56.002 6.774-80.182l-323.171-418.634 323.171-418.634c7.647-9.967 12.253-22.617 12.253-36.342 0-17.282-7.305-32.858-18.995-43.809l-0.033-0.031z" />
<glyph unicode="&#xe90c;" glyph-name="star" d="M1005.351 576.066c7.765-6.314 13.653-14.847 16.895-24.745 1.067-4.085 1.679-8.775 1.679-13.607 0-5.737-0.863-11.273-2.467-16.484l0.105 0.396c-2.982-9.902-8.434-18.306-15.651-24.787l-0.050-0.044-211.19-214.263 51.198-304.115c1.792-10.069 0.854-20.479-2.815-29.865-3.682-9.65-9.766-17.685-17.535-23.628l-0.128-0.094c-8.242-6.336-18.706-10.155-30.062-10.155-0.051 0-0.102 0-0.153 0h0.008c-0.025 0-0.055 0-0.086 0-8.625 0-16.694 2.379-23.589 6.516l0.208-0.116-260.767 143.524-261.791-142.926c-6.918-3.947-15.203-6.275-24.030-6.275-11.187 0-21.501 3.737-29.762 10.032l0.12-0.088c-7.897 6.037-13.981 14.072-17.541 23.357l-0.122 0.365c-2.34 5.931-3.696 12.8-3.696 19.987 0 3.491 0.321 6.908 0.933 10.223l-0.053-0.344 51.198 304.115-211.19 214.177c-9.271 9.961-14.961 23.363-14.961 38.094 0 5.488 0.79 10.792 2.262 15.804l-0.1-0.395c3.064 9.777 8.535 18.059 15.73 24.441l0.056 0.049c6.938 6.139 15.671 10.401 25.316 11.91l0.283 0.037 290.973 44.968 130.383 276.383c4.218 9.088 10.634 16.544 18.584 21.895l0.188 0.119c7.654 5.095 17.062 8.13 27.177 8.13s19.523-3.035 27.359-8.244l-0.182 0.114c8.172-5.461 14.617-12.919 18.721-21.691l0.136-0.324 130.383-276.808 290.973-44.371c9.812-0.938 19.199-4.778 27.050-11.178z" />
<glyph unicode="&#xe90d;" glyph-name="arrow-sm" d="M-0.007 483.609h806.093l-203.878 203.878 80.486 80.486 341.299-341.299-341.299-341.299-80.486 80.486 203.878 203.878h-806.093v113.869z" />
<glyph unicode="&#xe90e;" glyph-name="arrow-right" d="M817.434 641.788l197.468-193.596c5.609-5.454 9.088-13.073 9.088-21.504s-3.48-16.049-9.081-21.497l-0.007-0.007-197.468-193.596c-5.665-5.513-13.411-8.913-21.952-8.913s-16.286 3.4-21.959 8.92l0.007-0.007c-5.618 5.456-9.105 13.081-9.105 21.52s3.486 16.064 9.098 21.512l0.007 0.007 144.509 141.629h-887.597c-16.807 0-30.431 13.625-30.431 30.431s13.625 30.431 30.431 30.431h887.597l-144.477 141.629c-5.618 5.456-9.105 13.081-9.105 21.52s3.486 16.064 9.098 21.512l0.007 0.007c5.662 5.495 13.395 8.882 21.92 8.882s16.258-3.387 21.927-8.89l-0.008 0.007z" />
<glyph unicode="&#xe90f;" glyph-name="play" d="M872.484 500.559c39.813-24.17 59.746-36.228 66.644-51.707 2.985-6.516 4.726-14.135 4.726-22.161s-1.741-15.645-4.865-22.5l0.139 0.339c-6.953-15.48-26.832-27.592-66.644-51.707l-661.23-400.844c-42.42-25.745-63.657-38.564-81.093-37.206-16.436 1.338-30.655 9.807-39.704 22.275l-0.108 0.157c-10.212 14.23-10.212 38.999-10.212 88.642v801.688c0 49.59 0 74.411 10.212 88.642 9.178 12.615 23.419 21.070 39.676 22.366l0.19 0.012c17.435 1.412 38.672-11.406 81.093-37.152l661.23-400.844z" />
<glyph unicode="&#xe910;" glyph-name="quotes" d="M0 276.757c0-71.505 16.517-145.763 46.796-209.024 44.031-38.501 99.091-66.016 167.912-66.016 104.599 0 184.418 68.76 184.418 184.285 0 71.514-24.77 137.52-107.343 203.535l-101.855 82.512c60.558 123.768 151.395 211.789 261.503 291.557l-49.55 88.011c-228.46-121.024-401.88-332.813-401.88-574.861zM572.547 276.757c0-71.505 16.517-145.763 46.796-209.024 44.031-38.501 99.080-66.016 167.912-66.016 104.599 0 184.418 68.76 184.418 184.285 0 71.514-24.77 137.52-107.343 203.535l-101.855 82.512c60.558 123.768 151.395 211.789 261.503 291.557l-49.55 88.011c-228.46-121.024-401.88-332.813-401.88-574.861z" />
<glyph unicode="&#xe911;" glyph-name="mail" d="M891.237 865.513c73.361-0.207 132.752-59.726 132.752-133.116 0-0.154 0-0.309-0.001-0.462v0.024-610.582c0.001-0.13 0.001-0.285 0.001-0.439 0-73.391-59.391-132.909-132.732-133.116h-758.492c-73.361 0.207-132.752 59.726-132.752 133.116 0 0.154 0 0.309 0.001 0.462v-0.024 610.582c-0.001 0.13-0.001 0.285-0.001 0.439 0 73.391 59.391 132.909 132.732 133.116h758.492zM910.18 589.113l-318.017-242.535c-21.971-16.913-49.877-27.105-80.162-27.105s-58.192 10.192-80.474 27.335l0.311-0.23-318.091 242.535v-467.737c0-10.532 8.558-19.017 19.017-19.017h758.474c10.503 0 19.017 8.514 19.017 19.017v0l-0.073 467.737zM891.237 751.048h-758.474c-0.002 0-0.006 0-0.009 0-10.297 0-18.683-8.184-19.007-18.402l-0.001-0.030 386.77-294.759c6.802-5.12 16.165-5.12 22.966 0l386.623 294.759-0.366 3.658c-1.998 8.514-9.52 14.758-18.502 14.774h-0.002z" />
<glyph unicode="&#xe912;" glyph-name="phone" d="M738.746 938.645c76.798 0 138.967-59.463 138.967-132.75v-758.469c0-73.287-62.169-132.75-138.967-132.75h-453.473c-76.798 0-138.967 59.463-138.967 132.75v758.469c0 73.287 62.169 132.75 138.967 132.75h453.473zM738.746 824.838h-453.473c-0.154 0.004-0.335 0.007-0.517 0.007-10.553 0-19.135-8.433-19.377-18.927v-758.491c0-10.459 8.85-19.016 19.821-19.016h453.619c10.971 0 19.821 8.558 19.821 19.016v758.469c-0.203 10.549-8.801 19.021-19.379 19.021-0.155 0-0.311-0.002-0.465-0.005h0.023zM614.115 808.601c32.913 0 59.536-25.453 59.536-56.903s-26.696-56.83-59.536-56.83h-204.136c-32.913 0-59.536 25.453-59.536 56.83 0 31.45 26.623 56.903 59.536 56.903h204.063z" />
<glyph unicode="&#xe913;" glyph-name="account" d="M702.099 390.319c49.462 38.904 86.333 91.793 104.791 152.687l0.567 2.175c7.921 25.874 12.482 55.615 12.482 86.421 0 35.983-6.222 70.512-17.65 102.571l0.664-2.134c-21.937 61.755-61.102 112.865-111.694 149.007l-0.933 0.634c-49.795 35.633-111.93 56.976-179.051 56.976s-129.257-21.344-179.99-57.614l0.939 0.638c-51.524-36.776-90.69-87.885-111.959-147.494l-0.668-2.146c-10.783-29.948-17.017-64.504-17.017-100.516 0-30.777 4.553-60.491 13.022-88.505l-0.562 2.163c19.031-63.050 55.901-115.922 104.699-154.311l0.658-0.499c-88.435-35.802-162.095-92.448-217.301-164.055l-0.889-1.2c-54.189-70.243-90.745-156.684-101.604-250.947l-0.221-2.362c-0.197-1.685-0.309-3.638-0.309-5.615 0-12.229 4.288-23.455 11.441-32.26l-0.074 0.094c9.574-11.838 24.098-19.345 40.376-19.345 26.518 0 48.382 19.924 51.442 45.618l0.024 0.246c12.091 103.842 61.517 194.313 134.284 259.147l0.407 0.356c72.548 64.636 168.722 104.129 274.121 104.129 0.062 0 0.124 0 0.186 0h-0.010c101.21 0 198.838-37.065 274.298-104.129 73.179-65.187 122.606-155.66 134.51-257.593l0.181-1.91c3.127-25.782 24.878-45.563 51.249-45.563 0.071 0 0.141 0 0.212 0h5.62c13.515 1.587 25.853 8.396 34.3 18.942 7.032 8.669 11.291 19.837 11.291 31.998 0 1.893-0.103 3.762-0.304 5.6l0.020-0.227c-11.123 96.892-47.867 183.552-103.21 255.097l0.874-1.175c-56.365 72.891-130.385 129.531-215.758 163.923l-3.456 1.23zM511.247 426.667c0 0 0 0 0 0-42.591 0-82.172 12.887-115.058 34.974l0.742-0.47c-33.53 22.491-59.611 53.743-75.26 90.503l-0.507 1.34c-9.943 23.171-15.724 50.14-15.724 78.459 0 56.535 23.043 107.689 60.249 144.58l0.014 0.014c37.361 37.036 88.802 59.92 145.587 59.92 28.365 0 55.395-5.709 80.006-16.042l-1.362 0.507c38.269-16.005 69.704-41.972 91.945-74.692l0.46-0.716c21.714-31.914 34.67-71.306 34.67-113.724 0-56.57-23.042-107.759-60.254-144.691l-0.013-0.012c-37.289-37.019-88.66-59.897-145.373-59.897-0.042 0-0.084 0-0.127 0h0.006z" />
<glyph unicode="&#xe914;" glyph-name="cart" d="M870.385 682.667h-153.6v51.2c0 113.108-91.692 204.8-204.8 204.8s-204.8-91.692-204.8-204.8v0-51.2h-153.6c-28.277 0-51.2-22.923-51.2-51.2v0-563.2c0-84.831 68.769-153.6 153.6-153.6v0h512c84.831 0 153.6 68.769 153.6 153.6v0 563.2c0 28.277-22.923 51.2-51.2 51.2v0zM409.585 733.867c0 56.554 45.846 102.4 102.4 102.4s102.4-45.846 102.4-102.4v0-51.2h-204.8v51.2zM819.185 68.267c0-28.277-22.923-51.2-51.2-51.2v0h-512c-28.277 0-51.2 22.923-51.2 51.2v0 512h102.4v-51.2c0-28.277 22.923-51.2 51.2-51.2s51.2 22.923 51.2 51.2v0 51.2h204.8v-51.2c0-28.277 22.923-51.2 51.2-51.2s51.2 22.923 51.2 51.2v0 51.2h102.4v-512z" />
<glyph unicode="&#xe915;" glyph-name="edit" d="M64.532-81.461l0.292 0.115c-5.639-2.491-11.877-3.873-18.439-3.873-12.794 0-24.359 5.259-32.661 13.74l-0.004 0.004c-8.393 8.294-13.595 19.812-13.595 32.545 0 6.554 1.378 12.787 3.745 18.13l144.343 340.462c2.302 5.414 5.606 10.298 9.676 14.415l573.909 573.909c18.889 18.912 45 30.612 73.841 30.612 28.715 0 54.721-11.597 73.586-30.357l114.533-114.533c18.747-18.867 30.33-44.861 30.33-73.559 0-28.827-11.687-54.923-30.581-73.81l-573.965-573.901c-4.14-4.068-9.019-7.389-14.724-9.861l-340.288-144.037zM805.385 834.462l-89.583-89.583 114.41-114.474 89.839 89.903-114.41 114.41-0.256-0.256zM642.216 671.293l-402.868-402.804-84.080-198.555 198.555 84.080 402.804 402.868-114.41 114.41z" />
<glyph unicode="&#xe916;" glyph-name="trash" d="M395.452 829.737c-7.858-8.245-12.561-19.775-12.561-32.206v-44.445h258.295v44.428c0.001 0.115 0.001 0.229 0.001 0.344 0 12.315-4.78 23.513-12.562 31.815-7.794 8.116-17.842 12.238-27.826 12.238h-177.541c-10.96-0.107-20.827-4.784-27.807-12.238zM737.806 797.531v-44.445h84.832c0.191 0.003 0.418 0.004 0.644 0.004s0.453-0.002 0.678-0.005h87.374c26.681 0 48.31-21.629 48.31-48.31s-21.629-48.31-48.31-48.31v0h-40.387v-600.778c0-36.715-13.978-72.336-39.421-98.938-25.507-26.667-60.548-42.062-97.65-42.062h-443.676c-37.102 0-72.142 15.395-97.65 42.062-24.405 25.63-39.421 60.395-39.421 98.667 0 0.095 0 0.19 0 0.285v-0.014 600.843h-40.451c-26.681 0-48.31 21.629-48.31 48.31s21.629 48.31 48.31 48.31v0h87.408c0.191 0.003 0.418 0.004 0.644 0.004s0.453-0.002 0.678-0.005h84.797v44.445c0 36.715 13.978 72.4 39.421 98.938 25.507 26.667 60.677 42.126 97.65 42.126h177.522c37.037 0 72.142-15.459 97.65-42.126 25.443-26.538 39.356-62.223 39.356-98.938zM249.75 656.467v-600.778c0-12.432 4.767-23.962 12.561-32.206 7.73-8.052 17.842-12.238 27.891-12.238h443.676c11.006 0.080 20.901 4.763 27.871 12.216l0.020 0.022c7.782 8.302 12.563 19.501 12.563 31.816 0 0.137-0.001 0.275-0.002 0.412v-0.021 600.843h-524.578z" />
<glyph unicode="&#xe917;" glyph-name="search" d="M431.556 938.631c238.309-0.011 431.492-193.201 431.492-431.511 0-104.529-37.167-200.376-99.006-275.050l0.578 0.72 248.069-248.133c6.994-7.412 11.291-17.433 11.291-28.457 0-22.922-18.583-41.505-41.505-41.505-11.025 0-21.045 4.298-28.478 11.311l0.020-0.019-248.133 248.069c-73.957-61.272-169.814-98.446-274.353-98.446-238.318 0-431.511 193.194-431.511 431.511 0 238.303 193.171 431.487 431.467 431.511h0.003zM431.556 864.652c-197.46 0-357.532-160.072-357.532-357.532s160.072-357.532 357.532-357.532v0c197.46 0 357.532 160.072 357.532 357.532s-160.072 357.532-357.532 357.532v0z" />
</font>
</defs>
</svg>
